{
  "asset": {
    "generator": "Khronos glTF Blender I/O v3.5.30",
    "version": "2.0"
  },
  "scene": 0,
  "scenes": [
    {
      "name": "Scene",
      "nodes": [
        0
      ]
    }
  ],
  "nodes": [
    {
      "mesh": 0,
      "name": "coast_line_01"
    }
  ],
  "materials": [
    {
      "doubleSided": true,
      "name": "coast_line_01",
      "normalTexture": {
        "index": 0,
        "scale": 2
      },
      "pbrMetallicRoughness": {
        "baseColorTexture": {
          "index": 1
        },
        "metallicFactor": 0,
        "metallicRoughnessTexture": {
          "index": 2
        }
      }
    }
  ],
  "meshes": [
    {
      "name": "Plane.001",
      "primitives": [
        {
          "attributes": {
            "POSITION": 0,
            "TEXCOORD_0": 1,
            "NORMAL": 2
          },
          "indices": 3,
          "material": 0
        }
      ]
    }
  ],
  "textures": [
    {
      "sampler": 0,
      "source": 0
    },
    {
      "sampler": 0,
      "source": 1
    },
    {
      "sampler": 0,
      "source": 2
    }
  ],
  "images": [
    {
      "mimeType": "image/jpeg",
      "name": "coast_line_01_nor_gl",
      "uri": "textures/coast_line_01_nor_gl_4k.jpg"
    },
    {
      "mimeType": "image/jpeg",
      "name": "coast_line_01_diff",
      "uri": "textures/coast_line_01_diff_4k.jpg"
    },
    {
      "mimeType": "image/jpeg",
      "name": "coast_line_01_rough",
      "uri": "textures/coast_line_01_arm_4k.jpg"
    }
  ],
  "accessors": [
    {
      "bufferView": 0,
      "componentType": 5126,
      "count": 272608,
      "max": [
        28.472793579101562,
        1.4662021398544312,
        22.200725555419922
      ],
      "min": [
        -26.139019012451172,
        -1.167576551437378,
        -20.763442993164062
      ],
      "type": "VEC3"
    },
    {
      "bufferView": 1,
      "componentType": 5126,
      "count": 272608,
      "type": "VEC2"
    },
    {
      "bufferView": 2,
      "componentType": 5126,
      "count": 272608,
      "type": "VEC3"
    },
    {
      "bufferView": 3,
      "componentType": 5125,
      "count": 1618473,
      "type": "SCALAR"
    }
  ],
  "bufferViews": [
    {
      "buffer": 0,
      "byteLength": 3271296,
      "byteOffset": 0,
      "target": 34962
    },
    {
      "buffer": 0,
      "byteLength": 2180864,
      "byteOffset": 3271296,
      "target": 34962
    },
    {
      "buffer": 0,
      "byteLength": 3271296,
      "byteOffset": 5452160,
      "target": 34962
    },
    {
      "buffer": 0,
      "byteLength": 6473892,
      "byteOffset": 8723456,
      "target": 34963
    }
  ],
  "samplers": [
    {
      "magFilter": 9729,
      "minFilter": 9987
    }
  ],
  "buffers": [
    {
      "byteLength": 15197348,
      "uri": "coast_line_01.bin"
    }
  ]
}