{
  "accessors": [
    {
      "bufferView": 2,
      "componentType": 5126,
      "count": 9223,
      "max": [
        1.8759520053863525,
        2.988942861557007,
        3.9501888751983643
      ],
      "min": [
        -1.8759520053863525,
        -1.2496798038482666,
        -0.07332334667444229
      ],
      "type": "VEC3"
    },
    {
      "bufferView": 2,
      "byteOffset": 110676,
      "componentType": 5126,
      "count": 9223,
      "max": [
        1.0,
        1.0,
        1.0
      ],
      "min": [
        -1.0,
        -1.0,
        -1.0
      ],
      "type": "VEC3"
    },
    {
      "bufferView": 1,
      "componentType": 5126,
      "count": 9223,
      "max": [
        0.9868811964988708,
        0.9434589147567749
      ],
      "min": [
        0.011326372623443604,
        0.09993678331375122
      ],
      "type": "VEC2"
    },
    {
      "bufferView": 0,
      "componentType": 5125,
      "count": 13827,
      "type": "SCALAR"
    }
  ],
  "asset": {
    "extras": {
      "author": "Frank Bere (https://sketchfab.com/Frank.Bere)",
      "license": "CC-BY-4.0 (http://creativecommons.org/licenses/by/4.0/)",
      "source": "https://sketchfab.com/3d-models/cofre-del-tesoro-treasure-chest-2e3fd6aa4e6b424391c1a13dbdffbfdc",
      "title": "Cofre del tesoro / Treasure chest"
    },
    "generator": "Sketchfab-12.66.0",
    "version": "2.0"
  },
  "bufferViews": [
    {
      "buffer": 0,
      "byteLength": 55308,
      "name": "floatBufferViews",
      "target": 34963
    },
    {
      "buffer": 0,
      "byteLength": 73784,
      "byteOffset": 55308,
      "byteStride": 8,
      "name": "floatBufferViews",
      "target": 34962
    },
    {
      "buffer": 0,
      "byteLength": 221352,
      "byteOffset": 129092,
      "byteStride": 12,
      "name": "floatBufferViews",
      "target": 34962
    }
  ],
  "buffers": [
    {
      "byteLength": 350444,
      "uri": "scene.bin"
    }
  ],
  "images": [
    {
      "uri": "textures/cofre_baseColor.png"
    },
    {
      "uri": "textures/cofre_metallicRoughness.png"
    }
  ],
  "materials": [
    {
      "doubleSided": true,
      "name": "cofre",
      "pbrMetallicRoughness": {
        "baseColorTexture": {
          "index": 0
        },
        "metallicFactor": 0.0,
        "metallicRoughnessTexture": {
          "index": 1
        }
      }
    }
  ],
  "meshes": [
    {
      "name": "COFRE_cofre_0",
      "primitives": [
        {
          "attributes": {
            "NORMAL": 1,
            "POSITION": 0,
            "TEXCOORD_0": 2
          },
          "indices": 3,
          "material": 0,
          "mode": 4
        }
      ]
    }
  ],
  "nodes": [
    {
      "children": [
        1
      ],
      "matrix": [
        1.0,
        0.0,
        0.0,
        0.0,
        0.0,
        2.220446049250313e-16,
        -1.0,
        0.0,
        0.0,
        1.0,
        2.220446049250313e-16,
        0.0,
        0.0,
        0.0,
        0.0,
        1.0
      ],
      "name": "Sketchfab_model"
    },
    {
      "children": [
        2
      ],
      "matrix": [
        1.0,
        0.0,
        0.0,
        0.0,
        0.0,
        0.0,
        1.0,
        0.0,
        0.0,
        -1.0,
        0.0,
        0.0,
        0.0,
        0.0,
        0.0,
        1.0
      ],
      "name": "c4d8e5fb76894d3bb7dfc456789283f7.fbx"
    },
    {
      "children": [
        3
      ],
      "name": "RootNode"
    },
    {
      "children": [
        4
      ],
      "matrix": [
        98.7887954711914,
        0.0,
        0.0,
        0.0,
        0.0,
        -1.6094737674467184e-05,
        -98.7887954711901,
        0.0,
        0.0,
        98.78878784179557,
        -1.6094736431481042e-05,
        0.0,
        0.0,
        0.0,
        0.0,
        1.0
      ],
      "name": "COFRE"
    },
    {
      "mesh": 0,
      "name": "COFRE_cofre_0"
    }
  ],
  "samplers": [
    {
      "magFilter": 9729,
      "minFilter": 9987,
      "wrapS": 10497,
      "wrapT": 10497
    }
  ],
  "scene": 0,
  "scenes": [
    {
      "name": "Sketchfab_Scene",
      "nodes": [
        0
      ]
    }
  ],
  "textures": [
    {
      "sampler": 0,
      "source": 0
    },
    {
      "sampler": 0,
      "source": 1
    }
  ]
}
