{
  "accessors": [
    {
      "bufferView": 2,
      "componentType": 5126,
      "count": 8854,
      "max": [
        0.07401199638843536,
        0.05002399906516075,
        0.203792005777359
      ],
      "min": [
        -0.09983000159263611,
        -0.05044500157237053,
        -0.299576997756958
      ],
      "type": "VEC3"
    },
    {
      "bufferView": 2,
      "byteOffset": 106248,
      "componentType": 5126,
      "count": 8854,
      "max": [
        1.0,
        1.0,
        0.9998725652694702
      ],
      "min": [
        -1.0,
        -1.0,
        -0.9996432662010193
      ],
      "type": "VEC3"
    },
    {
      "bufferView": 3,
      "componentType": 5126,
      "count": 8854,
      "max": [
        0.9990838766098022,
        1.0,
        0.999975323677063,
        1.0
      ],
      "min": [
        -0.9998620748519897,
        -1.0,
        -0.9999487400054932,
        -1.0
      ],
      "type": "VEC4"
    },
    {
      "bufferView": 1,
      "componentType": 5126,
      "count": 8854,
      "max": [
        0.9819179773330688,
        1.0
      ],
      "min": [
        0.0,
        0.0
      ],
      "type": "VEC2"
    },
    {
      "bufferView": 0,
      "componentType": 5125,
      "count": 22386,
      "type": "SCALAR"
    },
    {
      "bufferView": 2,
      "byteOffset": 212496,
      "componentType": 5126,
      "count": 4,
      "max": [
        0.016011999920010567,
        0.04196999967098236,
        0.29097598791122437
      ],
      "min": [
        0.016011999920010567,
        -0.08656200021505356,
        0.059386998414993286
      ],
      "type": "VEC3"
    },
    {
      "bufferView": 2,
      "byteOffset": 212544,
      "componentType": 5126,
      "count": 4,
      "max": [
        1.0,
        0.0,
        -0.0
      ],
      "min": [
        1.0,
        0.0,
        -0.0
      ],
      "type": "VEC3"
    },
    {
      "bufferView": 1,
      "byteOffset": 70832,
      "componentType": 5126,
      "count": 4,
      "max": [
        1.0,
        1.0
      ],
      "min": [
        0.0,
        0.0
      ],
      "type": "VEC2"
    },
    {
      "bufferView": 0,
      "byteOffset": 89544,
      "componentType": 5125,
      "count": 6,
      "type": "SCALAR"
    },
    {
      "bufferView": 2,
      "byteOffset": 212592,
      "componentType": 5126,
      "count": 4,
      "max": [
        0.06992699950933456,
        0.04060199856758118,
        0.22934800386428833
      ],
      "min": [
        -0.02525399997830391,
        -0.05727799981832504,
        0.04496400058269501
      ],
      "type": "VEC3"
    },
    {
      "bufferView": 2,
      "byteOffset": 212640,
      "componentType": 5126,
      "count": 4,
      "max": [
        0.7168880105018616,
        0.6971883773803711,
        -0.0
      ],
      "min": [
        0.7168880105018616,
        0.6971883773803711,
        -0.0
      ],
      "type": "VEC3"
    },
    {
      "bufferView": 1,
      "byteOffset": 70864,
      "componentType": 5126,
      "count": 4,
      "max": [
        1.0,
        1.0
      ],
      "min": [
        0.0,
        0.0
      ],
      "type": "VEC2"
    },
    {
      "bufferView": 0,
      "byteOffset": 89568,
      "componentType": 5125,
      "count": 6,
      "type": "SCALAR"
    },
    {
      "bufferView": 2,
      "byteOffset": 212688,
      "componentType": 5126,
      "count": 4,
      "max": [
        0.05866700038313866,
        0.025120999664068222,
        0.31963199377059937
      ],
      "min": [
        -0.019933000206947327,
        -0.03845199942588806,
        0.06984200328588486
      ],
      "type": "VEC3"
    },
    {
      "bufferView": 2,
      "byteOffset": 212736,
      "componentType": 5126,
      "count": 4,
      "max": [
        -0.628893256187439,
        0.7774916291236877,
        -0.0
      ],
      "min": [
        -0.628893256187439,
        0.7774916291236877,
        -0.0
      ],
      "type": "VEC3"
    },
    {
      "bufferView": 1,
      "byteOffset": 70896,
      "componentType": 5126,
      "count": 4,
      "max": [
        0.879069983959198,
        0.8757100105285645
      ],
      "min": [
        0.15894000232219696,
        0.0
      ],
      "type": "VEC2"
    },
    {
      "bufferView": 0,
      "byteOffset": 89592,
      "componentType": 5125,
      "count": 6,
      "type": "SCALAR"
    },
    {
      "bufferView": 2,
      "byteOffset": 212784,
      "componentType": 5126,
      "count": 4,
      "max": [
        0.0493989996612072,
        0.026774000376462936,
        0.2193329930305481
      ],
      "min": [
        -0.009531999938189983,
        -0.02717999927699566,
        0.04933499917387962
      ],
      "type": "VEC3"
    },
    {
      "bufferView": 2,
      "byteOffset": 212832,
      "componentType": 5126,
      "count": 4,
      "max": [
        0.6752716898918152,
        0.7375690937042236,
        -0.0
      ],
      "min": [
        0.6752716898918152,
        0.7375690937042236,
        -0.0
      ],
      "type": "VEC3"
    },
    {
      "bufferView": 1,
      "byteOffset": 70928,
      "componentType": 5126,
      "count": 4,
      "max": [
        1.0,
        1.0
      ],
      "min": [
        0.0,
        0.0
      ],
      "type": "VEC2"
    },
    {
      "bufferView": 0,
      "byteOffset": 89616,
      "componentType": 5125,
      "count": 6,
      "type": "SCALAR"
    },
    {
      "bufferView": 2,
      "byteOffset": 212880,
      "componentType": 5126,
      "count": 4,
      "max": [
        0.04220300167798996,
        0.03322799876332283,
        0.22385099530220032
      ],
      "min": [
        -0.004222999792546034,
        -0.03363500162959099,
        0.06125300005078316
      ],
      "type": "VEC3"
    },
    {
      "bufferView": 2,
      "byteOffset": 212928,
      "componentType": 5126,
      "count": 4,
      "max": [
        0.821424663066864,
        0.5703170895576477,
        -0.0
      ],
      "min": [
        0.821424663066864,
        0.5703170895576477,
        -0.0
      ],
      "type": "VEC3"
    },
    {
      "bufferView": 1,
      "byteOffset": 70960,
      "componentType": 5126,
      "count": 4,
      "max": [
        1.0,
        1.0
      ],
      "min": [
        0.0,
        0.0
      ],
      "type": "VEC2"
    },
    {
      "bufferView": 0,
      "byteOffset": 89640,
      "componentType": 5125,
      "count": 6,
      "type": "SCALAR"
    },
    {
      "bufferView": 2,
      "byteOffset": 212976,
      "componentType": 5126,
      "count": 4,
      "max": [
        0.06654500216245651,
        -0.0005959999980404973,
        0.2702920138835907
      ],
      "min": [
        -0.060823000967502594,
        -0.004616999998688698,
        0.03593600168824196
      ],
      "type": "VEC3"
    },
    {
      "bufferView": 2,
      "byteOffset": 213024,
      "componentType": 5126,
      "count": 4,
      "max": [
        -0.031600020825862885,
        -0.9995006918907166,
        -0.0
      ],
      "min": [
        -0.031600020825862885,
        -0.9995006918907166,
        -0.0
      ],
      "type": "VEC3"
    },
    {
      "bufferView": 1,
      "byteOffset": 70992,
      "componentType": 5126,
      "count": 4,
      "max": [
        1.0,
        1.0
      ],
      "min": [
        0.0,
        0.0
      ],
      "type": "VEC2"
    },
    {
      "bufferView": 0,
      "byteOffset": 89664,
      "componentType": 5125,
      "count": 6,
      "type": "SCALAR"
    },
    {
      "bufferView": 2,
      "byteOffset": 213072,
      "componentType": 5126,
      "count": 8,
      "max": [
        0.1390179991722107,
        0.15850399434566498,
        0.547685980796814
      ],
      "min": [
        -0.12174999713897705,
        -0.2102770060300827,
        -0.00583200016990304
      ],
      "type": "VEC3"
    },
    {
      "bufferView": 2,
      "byteOffset": 213168,
      "componentType": 5126,
      "count": 8,
      "max": [
        1.0,
        0.7071068286895752,
        -0.0
      ],
      "min": [
        -0.7071068286895752,
        0.0,
        -0.0
      ],
      "type": "VEC3"
    },
    {
      "bufferView": 1,
      "byteOffset": 71024,
      "componentType": 5126,
      "count": 8,
      "max": [
        1.0,
        1.0
      ],
      "min": [
        0.0,
        0.0
      ],
      "type": "VEC2"
    },
    {
      "bufferView": 0,
      "byteOffset": 89688,
      "componentType": 5125,
      "count": 12,
      "type": "SCALAR"
    }
  ],
  "asset": {
    "extras": {
      "author": "danielrodriguezcarmona (https://sketchfab.com/danielrodriguezcarmona)",
      "license": "CC-BY-4.0 (http://creativecommons.org/licenses/by/4.0/)",
      "source": "https://sketchfab.com/3d-models/antorcha-medieval-104bce1de9ba40f0ab82cf2fe30fef6b",
      "title": "Antorcha_Medieval"
    },
    "generator": "Sketchfab-16.16.0",
    "version": "2.0"
  },
  "bufferViews": [
    {
      "buffer": 0,
      "byteLength": 89736,
      "name": "floatBufferViews",
      "target": 34963
    },
    {
      "buffer": 0,
      "byteLength": 71088,
      "byteOffset": 89736,
      "byteStride": 8,
      "name": "floatBufferViews",
      "target": 34962
    },
    {
      "buffer": 0,
      "byteLength": 213264,
      "byteOffset": 160824,
      "byteStride": 12,
      "name": "floatBufferViews",
      "target": 34962
    },
    {
      "buffer": 0,
      "byteLength": 141664,
      "byteOffset": 374088,
      "byteStride": 16,
      "name": "floatBufferViews",
      "target": 34962
    }
  ],
  "buffers": [
    {
      "byteLength": 515752,
      "uri": "scene.bin"
    }
  ],
  "extensionsUsed": [
    "KHR_materials_specular"
  ],
  "images": [
    {
      "uri": "textures/Antorcha_LP_baseColor.jpeg"
    },
    {
      "uri": "textures/Antorcha_LP_metallicRoughness.png"
    },
    {
      "uri": "textures/Antorcha_LP_normal.jpeg"
    },
    {
      "uri": "textures/Tex_Fuego_1_baseColor.png"
    },
    {
      "uri": "textures/Tex_Fuego_2_baseColor.png"
    },
    {
      "uri": "textures/Tex_Fuego_3_baseColor.png"
    },
    {
      "uri": "textures/Tex_Fuego_4_baseColor.png"
    },
    {
      "uri": "textures/Tex_Fuego_5_baseColor.png"
    },
    {
      "uri": "textures/Tex_Fuego_6_baseColor.png"
    },
    {
      "uri": "textures/Tex_Humo_baseColor.png"
    }
  ],
  "materials": [
    {
      "doubleSided": true,
      "name": "Antorcha_LP",
      "normalTexture": {
        "index": 2
      },
      "occlusionTexture": {
        "index": 1
      },
      "pbrMetallicRoughness": {
        "baseColorTexture": {
          "index": 0
        },
        "metallicRoughnessTexture": {
          "index": 1
        }
      }
    },
    {
      "alphaMode": "BLEND",
      "doubleSided": true,
      "name": "Tex_Fuego_1",
      "pbrMetallicRoughness": {
        "baseColorFactor": [
          1.0,
          1.0,
          1.0,
          0.05885586126628579
        ],
        "baseColorTexture": {
          "index": 3
        },
        "metallicFactor": 0.0,
        "roughnessFactor": 0.8011823178082373
      }
    },
    {
      "alphaMode": "BLEND",
      "doubleSided": true,
      "name": "Tex_Fuego_2",
      "pbrMetallicRoughness": {
        "baseColorFactor": [
          1.0,
          1.0,
          1.0,
          0.10766938749440359
        ],
        "baseColorTexture": {
          "index": 4
        },
        "metallicFactor": 0.0,
        "roughnessFactor": 0.8011823178082373
      }
    },
    {
      "alphaMode": "BLEND",
      "doubleSided": true,
      "name": "Tex_Fuego_3",
      "pbrMetallicRoughness": {
        "baseColorFactor": [
          1.0,
          1.0,
          1.0,
          0.1747879860580656
        ],
        "baseColorTexture": {
          "index": 5
        },
        "metallicFactor": 0.0,
        "roughnessFactor": 0.8011823178082373
      }
    },
    {
      "alphaMode": "BLEND",
      "doubleSided": true,
      "name": "Tex_Fuego_4",
      "pbrMetallicRoughness": {
        "baseColorFactor": [
          1.0,
          1.0,
          1.0,
          0.10766938749440359
        ],
        "baseColorTexture": {
          "index": 6
        },
        "metallicFactor": 0.0,
        "roughnessFactor": 0.8011823178082373
      }
    },
    {
      "alphaMode": "BLEND",
      "doubleSided": true,
      "name": "Tex_Fuego_5",
      "pbrMetallicRoughness": {
        "baseColorFactor": [
          1.0,
          1.0,
          1.0,
          0.16258460450103612
        ],
        "baseColorTexture": {
          "index": 7
        },
        "metallicFactor": 0.0,
        "roughnessFactor": 0.8011823178082373
      }
    },
    {
      "alphaMode": "BLEND",
      "doubleSided": true,
      "name": "Tex_Fuego_6",
      "pbrMetallicRoughness": {
        "baseColorFactor": [
          1.0,
          1.0,
          1.0,
          0.11377107827291832
        ],
        "baseColorTexture": {
          "index": 8
        },
        "metallicFactor": 0.0,
        "roughnessFactor": 0.8011823178082373
      }
    },
    {
      "alphaMode": "BLEND",
      "doubleSided": true,
      "extensions": {
        "KHR_materials_specular": {
          "specularColorFactor": [
            1.0,
            1.0,
            1.0
          ],
          "specularFactor": 0.0
        }
      },
      "name": "Tex_Humo",
      "pbrMetallicRoughness": {
        "baseColorFactor": [
          1.0,
          1.0,
          1.0,
          0.16258460450103612
        ],
        "baseColorTexture": {
          "index": 9
        },
        "metallicFactor": 0.0,
        "roughnessFactor": 0.766651991573994
      }
    }
  ],
  "meshes": [
    {
      "name": "Object_0",
      "primitives": [
        {
          "attributes": {
            "NORMAL": 1,
            "POSITION": 0,
            "TANGENT": 2,
            "TEXCOORD_0": 3
          },
          "indices": 4,
          "material": 0,
          "mode": 4
        }
      ]
    },
    {
      "name": "Object_1",
      "primitives": [
        {
          "attributes": {
            "NORMAL": 6,
            "POSITION": 5,
            "TEXCOORD_0": 7
          },
          "indices": 8,
          "material": 1,
          "mode": 4
        }
      ]
    },
    {
      "name": "Object_2",
      "primitives": [
        {
          "attributes": {
            "NORMAL": 10,
            "POSITION": 9,
            "TEXCOORD_0": 11
          },
          "indices": 12,
          "material": 2,
          "mode": 4
        }
      ]
    },
    {
      "name": "Object_3",
      "primitives": [
        {
          "attributes": {
            "NORMAL": 14,
            "POSITION": 13,
            "TEXCOORD_0": 15
          },
          "indices": 16,
          "material": 3,
          "mode": 4
        }
      ]
    },
    {
      "name": "Object_4",
      "primitives": [
        {
          "attributes": {
            "NORMAL": 18,
            "POSITION": 17,
            "TEXCOORD_0": 19
          },
          "indices": 20,
          "material": 4,
          "mode": 4
        }
      ]
    },
    {
      "name": "Object_5",
      "primitives": [
        {
          "attributes": {
            "NORMAL": 22,
            "POSITION": 21,
            "TEXCOORD_0": 23
          },
          "indices": 24,
          "material": 5,
          "mode": 4
        }
      ]
    },
    {
      "name": "Object_6",
      "primitives": [
        {
          "attributes": {
            "NORMAL": 26,
            "POSITION": 25,
            "TEXCOORD_0": 27
          },
          "indices": 28,
          "material": 6,
          "mode": 4
        }
      ]
    },
    {
      "name": "Object_7",
      "primitives": [
        {
          "attributes": {
            "NORMAL": 30,
            "POSITION": 29,
            "TEXCOORD_0": 31
          },
          "indices": 32,
          "material": 7,
          "mode": 4
        }
      ]
    }
  ],
  "nodes": [
    {
      "children": [
        1
      ],
      "matrix": [
        1.0,
        0.0,
        0.0,
        0.0,
        0.0,
        2.220446049250313e-16,
        -1.0,
        0.0,
        0.0,
        1.0,
        2.220446049250313e-16,
        0.0,
        0.0,
        0.0,
        0.0,
        1.0
      ],
      "name": "Sketchfab_model"
    },
    {
      "children": [
        2,
        3,
        4,
        5,
        6,
        7,
        8,
        9
      ],
      "name": "AntorchaConFuego.obj.cleaner.materialmerger.gles"
    },
    {
      "mesh": 0,
      "name": "Object_2"
    },
    {
      "mesh": 1,
      "name": "Object_3"
    },
    {
      "mesh": 2,
      "name": "Object_4"
    },
    {
      "mesh": 3,
      "name": "Object_5"
    },
    {
      "mesh": 4,
      "name": "Object_6"
    },
    {
      "mesh": 5,
      "name": "Object_7"
    },
    {
      "mesh": 6,
      "name": "Object_8"
    },
    {
      "mesh": 7,
      "name": "Object_9"
    }
  ],
  "samplers": [
    {
      "magFilter": 9729,
      "minFilter": 9987,
      "wrapS": 10497,
      "wrapT": 10497
    }
  ],
  "scene": 0,
  "scenes": [
    {
      "name": "Sketchfab_Scene",
      "nodes": [
        0
      ]
    }
  ],
  "textures": [
    {
      "sampler": 0,
      "source": 0
    },
    {
      "sampler": 0,
      "source": 1
    },
    {
      "sampler": 0,
      "source": 2
    },
    {
      "sampler": 0,
      "source": 3
    },
    {
      "sampler": 0,
      "source": 4
    },
    {
      "sampler": 0,
      "source": 5
    },
    {
      "sampler": 0,
      "source": 6
    },
    {
      "sampler": 0,
      "source": 7
    },
    {
      "sampler": 0,
      "source": 8
    },
    {
      "sampler": 0,
      "source": 9
    }
  ]
}
